<svg width="49" height="49" viewBox="0 0 49 49" fill="none" xmlns="http://www.w3.org/2000/svg">
<path fill-rule="evenodd" clip-rule="evenodd" d="M46.6072 33.6115L46.8753 34.0902C47.541 35.3294 49.5261 38.9813 46.9355 42.2483C45.827 43.7034 43.4443 46.3789 40.3417 47.6181L39.6941 47.8527L39.426 47.8621C38.7211 47.9842 37.8837 48.0124 37.2662 48.0124C34.8654 48.0124 22.3736 47.4585 11.6168 36.4935C0.260623 24.9371 -0.615944 10.1889 0.685351 7.29736C2.08304 4.35909 4.94468 2.13406 6.51708 1.0827C7.1617 0.67895 7.77921 0.416201 8.44492 0.228444C9.04135 0.0780926 9.56247 0.0124512 10.0836 0.0124512C12.1681 0.0124512 13.879 1.00001 14.8128 1.53852L14.8369 1.55209L15.3279 1.84308C18.7107 3.87081 20.0421 14.1129 20.0421 14.2068C19.9457 16.366 18.4607 17.9714 16.34 19.9992C17.5449 22.2429 19.78 25.1155 21.3916 26.7208C22.961 28.2885 25.5847 30.4383 28.0125 31.8185C29.8922 30.1191 31.2507 29.0115 32.8803 28.6453L33.9226 28.5045L34.1515 28.5138C34.2479 28.5138 44.6974 30.2412 46.6072 33.6115ZM38.3837 42.5112C39.8597 41.8821 41.4773 40.2581 42.4894 38.9439C42.7877 38.5588 42.634 37.9299 41.9593 36.6908L41.8539 36.503C40.5917 35.7051 35.7631 34.3156 34.0642 33.9964C33.5491 34.2564 32.2177 35.4658 31.2507 36.3428L31.1152 36.4654C29.8832 37.62 27.9553 37.9299 26.3829 37.1695C23.1236 35.5547 19.53 32.6821 17.4004 30.5418C15.2315 28.3826 12.1741 24.4021 10.8065 21.3135C10.1709 19.802 10.5174 18.0747 11.665 16.8729L11.7614 16.7697L11.9211 16.6164C12.7615 15.8098 14.0869 14.5357 14.4303 13.9722C14.1712 12.3198 12.9663 7.61659 12.1831 6.34923L11.9542 6.20841C11.4331 5.90808 10.4601 5.34481 9.92997 5.47627C9.78538 5.52321 9.64983 5.5982 9.60163 5.62644C7.91477 6.76233 6.50804 8.1705 5.86944 9.36268C5.59232 11.1464 6.01403 22.9094 15.6653 32.729C24.8497 42.0888 35.2691 42.5675 37.2662 42.5675C37.8626 42.5675 38.2392 42.5299 38.3837 42.5112Z" fill="#F66464"/>
</svg>
