<?xml version="1.0" encoding="UTF-8"?>
<svg width="342px" height="241px" viewBox="0 0 342 241" version="1.1" xmlns="http://www.w3.org/2000/svg" xmlns:xlink="http://www.w3.org/1999/xlink">
    <!-- Generator: Sketch 53.2 (72643) - https://sketchapp.com -->
    <title>Group 9</title>
    <desc>Created with Sketch.</desc>
    <g id="App-v2" stroke="none" stroke-width="1" fill="none" fill-rule="evenodd">
        <g id="Success" transform="translate(-444.000000, -179.000000)">
            <g id="Group-9" transform="translate(416.000000, 170.000000)">
                <path d="M226.727411,41.0303693 C204.808214,40.3987555 183.932946,34.4992846 164.012411,28.0442582 C144.091875,21.5892317 124.316696,14.4496814 102.922768,11.0303693 C89.1633929,8.8312952 73.4284821,8.52044863 62.3416964,14.6679354 C51.6711607,20.5839407 48.2255357,30.7988878 46.3722321,40.2797079 C44.9748214,47.4093375 44.1555357,54.9159513 47.9777679,61.5892317 C50.620625,66.2188613 55.3414286,70.1176709 58.59875,74.5555015 C69.93,90.0019301 61.9221429,109.046242 49.6394643,124.125607 C43.8780357,131.19902 37.1949107,137.948359 32.7483036,145.478121 C28.3016964,153.007882 26.2534821,161.642142 30.1351786,169.314099 C33.9904464,176.91992 43.1776786,182.644126 53.1313393,186.668597 C73.3458929,194.836586 97.1679464,197.174549 120.395357,198.500607 C171.812143,201.430502 223.506429,200.154047 275.061964,198.890819 C294.140089,198.421242 313.304107,197.945052 332.075,195.484734 C342.497768,194.118994 353.2575,191.952988 360.816071,186.721507 C370.422857,180.081295 372.801429,168.834602 366.366071,160.507882 C355.57,146.539629 325.732143,143.070713 318.170268,128.080634 C314.014375,119.829972 318.282589,110.636851 324.318214,102.984734 C337.268214,86.5693904 358.975982,72.1679354 360.119018,53.4047079 C360.901964,40.5078825 350.469286,27.6110571 334.334643,21.5131735 C317.423661,15.1209777 293.971607,15.9245492 281.4775,26.5065597 C268.656339,37.3994169 246.079732,41.6024592 226.727411,41.0303693 Z" id="Path" fill="#20C98B" fill-rule="nonzero" opacity="0.1"></path>
                <g id="undraw_message_sent_1030-(1)">
                    <path d="M253.506514,249.335833 L126.373933,249.335833 C117.692335,249.335833 110.654509,242.290963 110.654509,233.600675 L110.654509,175.296524 C110.65451,173.585413 111.357172,171.949531 112.597776,170.772364 L179.965466,106.849478 C185.558556,101.542391 194.321895,101.542391 199.914984,106.849478 L264.146512,167.796554 C267.389282,170.87351 269.225944,175.149485 269.225944,179.6221 L269.225944,233.600675 C269.225944,237.773899 267.569795,241.7762 264.621829,244.727114 C261.673864,247.678029 257.675566,249.335835 253.506514,249.335833 L253.506514,249.335833 Z" id="Path" fill="#3F3D56" fill-rule="nonzero"></path>
                    <path d="M110.654509,176.253823 L267.904509,176.253823 L267.904509,239.834418 C267.904509,245.081905 263.654835,249.335833 258.412595,249.335833 L120.146423,249.335833 C114.904184,249.335833 110.654509,245.081905 110.654509,239.834418 L110.654509,176.253823 Z" id="Path" fill="#000000" fill-rule="nonzero" opacity="0.1"></path>
                    <g id="Group" transform="translate(0.239387, 0.046524)"></g>
                    <rect id="Rectangle" fill="#20C98B" fill-rule="nonzero" x="131.301831" y="126.154616" width="116.946429" height="117.063492" rx="8.64973926"></rect>
                    <polygon id="Path" fill="#000000" fill-rule="nonzero" opacity="0.1" points="248.248196 178.882937 248.248196 243.218254 131.301768 243.218254 131.301768 178.882937 189.774982 207.17328"></polygon>
                    <path d="M189.775045,210.810701 L114.852093,174.561693 C113.910055,174.10592 112.800068,174.167126 111.913742,174.723717 C111.027415,175.280308 110.489332,176.254049 110.489331,177.301399 L110.489331,239.669071 C110.48933,242.189003 111.489367,244.605726 113.269447,246.387588 C115.049526,248.16945 117.463832,249.170489 119.981245,249.170489 L259.568845,249.170489 C262.086258,249.170489 264.500564,248.16945 266.280643,246.387588 C268.060722,244.605726 269.06076,242.189003 269.060759,239.669071 L269.060759,178.369798 C269.060761,177.091752 268.404157,175.903527 267.322602,175.224337 C266.241048,174.545147 264.886567,174.470461 263.737031,175.026627 L189.775045,210.810701 Z" id="Path" fill="#3F3D56" fill-rule="nonzero"></path>
                    <rect id="Rectangle" fill="#F2F2F2" fill-rule="nonzero" x="141.377723" y="136.901971" width="32.7053571" height="4.62962963"></rect>
                    <rect id="Rectangle" fill="#F2F2F2" fill-rule="nonzero" x="138.734866" y="153.76705" width="97.125" height="2.64550265"></rect>
                    <rect id="Rectangle" fill="#F2F2F2" fill-rule="nonzero" x="138.734866" y="162.695622" width="97.125" height="2.64550265"></rect>
                    <rect id="Rectangle" fill="#F2F2F2" fill-rule="nonzero" x="138.734866" y="171.624193" width="97.125" height="2.64550265"></rect>
                    <path d="M51.1902235,249.170489 L323.404509,249.170489" id="Path" stroke="#3F3D56" stroke-width="0.5"></path>
                    <path d="M31.0535714,208.450096 C31.0535714,227.94754 43.273013,243.724623 58.3738924,243.724623" id="Path" fill="#46455B" fill-rule="nonzero"></path>
                    <path d="M58.3738924,243.724623 C58.3738924,224.008108 72.0100772,208.053753 88.8617834,208.053753" id="Path" fill="#20C98B" fill-rule="nonzero"></path>
                    <path d="M40.9522376,210.217573 C40.9522376,228.738075 48.7443451,243.724623 58.3738924,243.724623" id="Path" fill="#20C98B" fill-rule="nonzero"></path>
                    <path d="M58.3738924,243.724623 C58.3738924,218.5313 74.1351987,198.145179 93.6131417,198.145179" id="Path" fill="#46455B" fill-rule="nonzero"></path>
                    <path d="M52.6264016,243.973313 C52.6264016,243.973313 56.5008731,243.853862 57.6685403,243.021551 C58.8362074,242.189239 63.6284507,241.19541 63.9181211,242.530258 C64.2077914,243.865106 69.7407318,249.169183 65.3664729,249.204501 C60.9922139,249.239818 55.2026422,248.52246 54.0372215,247.811845 C52.8718008,247.10123 52.6264016,243.973313 52.6264016,243.973313 Z" id="Path" fill="#A8A8A8" fill-rule="nonzero"></path>
                    <path d="M65.4445363,248.739835 C61.0702773,248.775165 55.2807089,248.057801 54.1152849,247.347183 C53.227754,246.806012 52.8740836,244.86416 52.7557463,243.968264 C52.6737946,243.971792 52.6264016,243.97331 52.6264016,243.97331 C52.6264016,243.97331 52.8718008,247.101227 54.0372248,247.811842 C55.2026488,248.522457 60.9922338,249.239825 65.3664729,249.204494 C66.6291507,249.194302 67.0652981,248.74461 67.0413505,248.078578 C66.8659375,248.480979 66.3843627,248.732252 65.4445363,248.739835 Z" id="Path" fill="#000000" fill-rule="nonzero" opacity="0.2"></path>
                    <path d="M268.815932,101.775982 C268.617387,103.546663 267.268169,104.973013 266.768252,106.683095 C266.015805,109.257004 267.3169,112.019038 269.096679,114.023621 C271.9973,117.256307 276.070075,119.192048 280.406006,119.39881 C281.036627,119.454301 281.671991,119.384985 282.275864,119.194815 C282.815024,118.977646 283.300474,118.645557 283.698475,118.221627 C285.038816,116.874448 285.758311,115.007831 286.045048,113.1283 C286.331784,111.24877 286.220352,109.333938 286.108228,107.435936 C286.108778,107.043592 286.037569,106.654462 285.898121,106.287788 C285.715345,105.938495 285.464285,105.629547 285.159862,105.379306 C284.194877,104.493192 283.131963,103.720279 281.991777,103.075585 C281.476409,102.844416 281.021905,102.49628 280.664276,102.058763 C280.448802,101.683954 280.309351,101.270258 280.25392,100.841392 L279.903923,99.0560483 C279.841489,98.5415549 279.665953,98.047299 279.389934,97.6088128 C278.771637,96.7739054 277.588926,96.6602844 276.551472,96.619547 L272.750663,96.4703009 C271.568395,96.4238757 270.010609,96.0845073 268.856453,96.3169246 C267.778699,96.5339583 268.136697,97.5281085 268.33247,98.4333267 C268.616368,99.5262706 268.77851,100.647318 268.815932,101.775982 L268.815932,101.775982 Z" id="Path" fill="#A0616A" fill-rule="nonzero"></path>
                    <path d="M268.815932,101.775982 C268.617387,103.546663 267.268169,104.973013 266.768252,106.683095 C266.015805,109.257004 267.3169,112.019038 269.096679,114.023621 C271.9973,117.256307 276.070075,119.192048 280.406006,119.39881 C281.036627,119.454301 281.671991,119.384985 282.275864,119.194815 C282.815024,118.977646 283.300474,118.645557 283.698475,118.221627 C285.038816,116.874448 285.758311,115.007831 286.045048,113.1283 C286.331784,111.24877 286.220352,109.333938 286.108228,107.435936 C286.108778,107.043592 286.037569,106.654462 285.898121,106.287788 C285.715345,105.938495 285.464285,105.629547 285.159862,105.379306 C284.194877,104.493192 283.131963,103.720279 281.991777,103.075585 C281.476409,102.844416 281.021905,102.49628 280.664276,102.058763 C280.448802,101.683954 280.309351,101.270258 280.25392,100.841392 L279.903923,99.0560483 C279.841489,98.5415549 279.665953,98.047299 279.389934,97.6088128 C278.771637,96.7739054 277.588926,96.6602844 276.551472,96.619547 L272.750663,96.4703009 C271.568395,96.4238757 270.010609,96.0845073 268.856453,96.3169246 C267.778699,96.5339583 268.136697,97.5281085 268.33247,98.4333267 C268.616368,99.5262706 268.77851,100.647318 268.815932,101.775982 L268.815932,101.775982 Z" id="Path" fill="#000000" fill-rule="nonzero" opacity="0.1"></path>
                    <path d="M292.99414,181.475324 C292.455658,187.385445 291.917181,193.294653 291.37871,199.202946 C290.957174,203.852642 290.527479,208.521399 289.700733,213.11119 C289.415166,214.692844 289.080653,216.266343 288.683597,217.826217 C287.579451,222.157391 285.977642,226.390565 285.460903,230.830651 C285.444587,230.958591 285.430993,231.089249 285.417399,231.21994 C285.359545,232.201761 285.17395,233.171827 284.865316,234.105572 C284.606953,234.783423 284.209887,235.401389 283.929781,236.071081 C283.37227,237.41045 283.298835,238.891382 283.230847,240.342354 C281.269709,239.238366 279.122876,238.503895 276.896953,238.175413 C275.822717,238.014792 274.626114,237.90046 273.894545,237.097371 C273.0841,236.209897 273.173851,234.851472 273.309813,233.659104 C273.736791,229.956782 274.162859,226.256275 274.588017,222.557583 C274.726769,220.966284 274.996928,219.389219 275.395724,217.842556 C275.542594,217.328036 275.719355,216.821693 275.898858,216.315351 C276.146332,215.618442 276.396528,214.921531 276.584181,214.205562 C276.854596,213.048743 277.043619,211.874362 277.149858,210.691065 C277.587703,206.966958 278.115303,203.251012 278.577635,199.52963 L278.602118,199.333631 C279.295607,193.693016 279.823207,188.025185 279.670912,182.343743 C279.649148,181.502563 279.613793,180.661362 279.5594,179.817457 C279.483259,178.595146 279.371757,177.947239 280.38344,177.182272 C281.501183,176.338356 282.972449,175.747612 284.250673,175.19498 C284.938734,174.895532 292.515475,172.203175 292.692253,172.793925 C293.047689,174.053992 293.234251,175.355755 293.247041,176.665026 C293.252445,178.271926 293.168012,179.877869 292.99414,181.475324 Z" id="Path" fill="#605D82" fill-rule="nonzero"></path>
                    <path d="M289.700733,213.11119 C289.415166,214.692844 289.080653,216.266343 288.683597,217.826217 C287.579451,222.157391 285.977642,226.390565 285.460903,230.830651 C285.444587,230.958591 285.430993,231.089249 285.417399,231.21994 C282.039669,226.390575 279.195,221.196425 275.898875,216.315344 C276.146348,215.618436 276.396544,214.921524 276.584197,214.205556 C276.854612,213.048736 277.043635,211.874355 277.149874,210.691058 C277.58772,206.966951 278.11532,203.251005 278.577651,199.529623 L278.602134,199.333624 C278.795589,200.123664 279.071793,200.891063 279.426157,201.623072 C281.6399,206.125771 286.899556,208.40161 289.472282,212.710999 C289.551144,212.844407 289.627295,212.977804 289.700733,213.11119 Z" id="Path" fill="#000000" fill-rule="nonzero" opacity="0.1"></path>
                    <path d="M262.292689,173.518085 C262.404251,177.129468 262.981775,180.708264 263.558103,184.27503 L264.747207,191.634054 C265.39801,195.66167 266.075573,199.771366 267.979659,203.378763 C269.404023,206.077275 271.456179,208.380003 273.31267,210.801032 C277.87668,216.7529 281.305361,223.495116 285.633043,229.621313 C286.890947,231.401984 288.688985,233.327705 290.835798,232.955893 C292.244771,232.711865 293.268128,231.537616 294.37566,230.632255 C295.681404,229.564864 297.255129,228.783826 298.282507,227.445886 C299.309885,226.107946 299.511178,223.884011 298.119281,222.931938 C297.615638,222.652668 297.08093,222.433659 296.526176,222.279425 C294.368449,221.457996 292.971841,219.34879 292.083203,217.216042 C291.194566,215.083294 290.656163,212.790033 289.472027,210.806379 C286.899566,206.497007 281.639157,204.221267 279.424875,199.716974 C278.184688,197.194183 278.06649,194.286445 277.971694,191.476353 L277.730038,184.312963 C277.703609,183.529606 277.682935,182.714891 278.001059,181.99869 C278.848045,180.091862 281.405373,179.914256 283.476068,179.672517 C285.826242,179.396804 288.102934,178.677783 290.185652,177.553505 C291.378317,176.908819 292.54351,176.086971 293.181551,174.889891 C293.763661,173.797748 293.843993,172.516769 293.912255,171.280794 L294.629233,158.298714 C294.690917,157.181812 294.74717,156.026968 294.353913,154.979931 C293.366452,152.350804 290.049842,151.49168 287.246652,151.61712 C282.030313,151.850546 277.214819,154.096693 272.296465,155.613538 C271.078242,155.998181 269.841422,156.321105 268.590714,156.581081 C267.486885,156.802817 266.150983,156.710813 265.098218,157.066088 C263.225991,157.69791 263.27353,161.796372 263.008048,163.496468 C262.459738,166.807584 262.220253,170.162571 262.292689,173.518085 L262.292689,173.518085 Z" id="Path" fill="#605D82" fill-rule="nonzero"></path>
                    <path d="M290.127519,233.500195 C290.587498,233.964544 290.737853,234.644821 290.857674,235.287659 C291.522097,238.853448 291.867696,242.471421 291.89037,246.098634 C291.85963,246.437067 291.927125,246.777188 292.084752,247.078165 C292.214288,247.257677 292.389813,247.398876 292.592819,247.486875 C293.922255,248.121134 295.465327,247.237206 296.573117,246.26583 C298.626709,244.465096 300.364388,242.048082 300.48103,239.317748 C300.459652,238.614494 300.484261,237.910593 300.5547,237.210556 C300.735075,236.182652 301.334716,235.287044 301.863076,234.387348 C302.76225,232.855821 303.4875,231.22844 304.025307,229.535546 C304.227277,228.899527 304.36161,228.098687 303.863732,227.654818 C303.687205,227.516359 303.486521,227.411927 303.271891,227.346835 L297.266467,225.114788 C296.746059,224.921369 295.451102,228.251131 295.24557,228.615152 C294.742806,229.505589 294.242896,230.011085 293.23425,230.21662 C292.204659,230.426422 290.979027,230.125377 290.018336,230.63957 C288.393223,231.509365 289.207368,232.571296 290.127519,233.500195 Z" id="Path" fill="#535070" fill-rule="nonzero"></path>
                    <path d="M280.861027,235.55502 C280.749332,235.332746 280.593838,235.135408 280.403915,234.974897 C280.125895,234.798388 279.809786,234.690889 279.481888,234.661343 C278.338595,234.467024 276.98349,234.339074 276.194396,235.189709 C275.454594,235.987212 275.581778,237.286392 274.963277,238.181442 C274.767477,238.464788 274.502184,238.698307 274.332423,238.998009 C274.121718,239.456145 274.02668,239.959083 274.055667,240.462603 C274.023744,241.849921 273.991871,243.239593 274.087609,244.623978 C274.167836,245.784031 274.363183,246.99964 275.087891,247.908459 C276.251095,249.367156 278.349018,249.576908 280.211178,249.671584 L281.719341,249.748261 C282.134703,249.798794 282.556055,249.760127 282.955313,249.634835 C283.454629,249.403802 283.839215,248.980235 284.021405,248.460685 C284.806456,246.507483 283.5632,244.403122 282.797379,242.442285 C281.917159,240.188472 282.075215,237.685909 280.861027,235.55502 Z" id="Path" fill="#535070" fill-rule="nonzero"></path>
                    <path d="M268.378978,91.7989319 C268.360501,91.6009237 268.389572,91.4013627 268.463768,91.2168816 C268.684664,90.8259028 269.261468,90.9323115 269.696578,91.0421197 C271.4464,91.4837169 273.290153,91.0839848 275.091782,91.1871495 C276.893411,91.2903142 278.922818,92.1918915 279.285065,93.9615013 C280.59276,93.0335035 281.720024,91.8740978 282.611306,90.54042 C283.111318,89.791412 283.547148,88.9334788 283.479078,88.0352083 C283.380899,86.7395734 282.294936,85.770625 281.289408,84.9489385 L278.291998,82.4995337 C277.898629,82.1376188 277.444233,81.848435 276.949936,81.6454266 C276.257768,81.4086541 275.502951,81.5214649 274.771485,81.5219345 C272.589571,81.5233333 270.263229,80.5293519 268.322682,81.5278638 C267.512071,81.9449636 266.901945,82.6597288 266.31378,83.3566733 L263.638548,86.5266138 C263.43717,86.7286395 263.29007,86.9783375 263.210914,87.2525099 C263.1348,87.6394444 263.333311,88.0213095 263.402584,88.4095271 C263.528949,89.1176918 263.224244,89.8734821 263.458503,90.5535582 C263.84741,91.6825694 265.216856,91.8423876 266.054073,92.4896362 C266.366109,92.7308697 266.855146,93.5484127 267.226924,93.5384292 C267.897717,93.5204167 268.361538,92.3206118 268.378978,91.7989319 Z" id="Path" fill="#3F3D56" fill-rule="nonzero"></path>
                    <ellipse id="Oval" fill="#A0616A" fill-rule="nonzero" cx="272.918207" cy="92.5677116" rx="8.56667277" ry="8.57524802"></ellipse>
                    <path d="M274.924674,111.334798 C274.328211,109.624614 272.693448,108.498497 270.884631,108.551789 C270.632478,108.598772 270.371963,108.565799 270.139428,108.45747 C270.007922,108.356327 269.902837,108.224813 269.833157,108.07417 C269.312251,107.136504 268.893488,106.145532 268.584077,105.118313 C268.447412,104.664425 268.260522,104.129325 267.801847,104.011319 C267.414864,103.960625 267.031472,104.127565 266.804684,104.445513 C266.586841,104.759587 266.348765,105.059104 266.091972,105.342156 C265.014545,106.306481 263.104651,105.427553 261.961084,106.312275 C261.77429,106.456786 261.620132,106.641908 261.423943,106.77336 C261.22758,106.891681 261.015944,106.982507 260.794943,107.043304 C258.586645,107.764953 256.42183,108.613672 254.31131,109.585222 C255.071981,114.170807 255.851435,118.836339 257.634469,123.128406 C258.482988,125.170952 259.444572,127.171396 260.12404,129.276339 C261.62955,133.940248 261.696296,138.930407 261.713193,143.831716 C261.724756,147.186233 261.708099,150.612368 260.62388,153.786488 C260.33221,154.487952 260.126619,155.222241 260.011613,155.973267 C259.946133,156.729633 260.166078,157.563598 260.778306,158.011716 C261.133266,158.244098 261.539237,158.386833 261.961404,158.427679 C263.840066,158.703614 265.734017,158.203142 267.583835,157.774309 C272.541907,156.624931 277.598546,155.967235 282.645478,155.31127 L291.102571,154.212063 C291.708771,154.170848 292.302063,154.017359 292.852301,153.759395 C294.399852,152.91123 294.546769,150.581048 293.585733,149.099947 C293.125004,148.389891 292.474957,147.807374 292.087841,147.054567 C291.700726,146.301759 291.667759,145.249051 292.334189,144.727646 C293.689799,143.667034 293.285439,141.699246 293.350093,139.978178 C293.530871,135.16585 293.506414,130.351642 293.276721,125.535556 C293.208824,124.538607 293.192885,123.538794 293.228968,122.540185 C293.37926,120.848033 293.691599,119.174246 294.161681,117.541888 L296.73144,107.413581 C296.060132,106.351696 294.774768,105.677983 293.557138,105.372103 C292.339507,105.066224 291.071313,104.9762 289.872176,104.604246 C287.415547,103.842252 285.228461,101.908479 282.662904,102.088704 C282.468839,102.092194 282.27798,102.138845 282.104148,102.225278 C281.525521,102.553403 281.617155,103.388095 281.580168,104.052755 C281.498339,105.52328 280.417843,106.752305 279.22462,107.614001 C278.031396,108.475698 276.668646,109.104024 275.572723,110.086736 C275.179428,110.383383 274.941223,110.842137 274.924674,111.334798 L274.924674,111.334798 Z" id="Path" fill="#3F3D56" fill-rule="nonzero"></path>
                    <path d="M240.980666,120.941799 C240.412579,121.310771 239.808908,121.621698 239.17874,121.869897 C238.561667,122.053646 237.978648,122.336868 237.452624,122.708419 C237.21019,122.918316 237.006953,123.169673 236.852395,123.450764 C236.261737,124.499185 236.287919,125.786302 236.920724,126.809785 C237.553529,127.833268 238.692655,128.430891 239.893527,128.369415 C240.677108,128.281528 241.438704,128.054226 242.142423,127.698221 L248.184646,125.077312 C249.207316,124.633714 250.312013,124.113846 250.795379,123.108552 C250.851696,123.014781 250.872568,122.903909 250.854209,122.796052 C250.805487,122.681997 250.717395,122.589298 250.606028,122.534894 C249.243162,121.648909 248.051287,120.523903 247.087751,119.214005 C246.839854,118.877097 246.536533,118.081591 246.186124,117.879597 C244.907172,117.142331 242.004344,120.276796 240.980666,120.941799 Z" id="Path" fill="#A0616A" fill-rule="nonzero"></path>
                    <path d="M305.574556,118.791167 L307.802197,121.338426 C308.280432,121.885274 308.759179,122.432758 309.195112,123.013958 C310.265608,124.490736 311.124385,126.110203 311.74646,127.825248 C312.230681,129.09714 312.632577,130.451925 312.463371,131.802467 C312.351032,132.494825 312.164226,133.172992 311.906211,133.825142 C311.497925,135.079399 310.991801,136.299598 310.392514,137.474471 C309.888455,138.367087 309.319114,139.221151 308.689153,140.029669 C306.964412,142.317878 305.077193,144.478706 303.042157,146.495367 C302.280585,147.250017 301.961202,148.470235 301.629685,149.490308 C301.018194,151.371825 299.563193,152.837262 298.156162,154.226892 C297.704006,154.704836 297.204273,155.13531 296.664738,155.511614 C295.856418,156.032733 294.911792,156.302026 293.950478,156.285394 C293.529651,156.288333 293.112978,156.201993 292.727902,156.03206 C291.765039,155.574372 291.275668,154.459835 291.175362,153.397593 C291.08573,152.433631 291.247112,151.462867 291.643779,150.579911 C292.922076,147.74538 296.204689,146.51708 298.524986,144.448905 C299.885568,143.236164 300.926021,141.712834 301.952187,140.206005 C302.649192,139.265202 303.231093,138.244203 303.685452,137.164831 C304.203637,135.780804 304.001934,134.142345 304.454649,132.735473 C304.646005,132.140794 304.986216,131.603839 305.191976,131.013995 C305.397736,130.42415 305.449539,129.723955 305.089598,129.213542 C304.818064,128.889148 304.471977,128.635522 304.081018,128.474415 C302.598765,127.721349 300.938661,126.752192 300.654973,125.112685 C300.541895,124.203484 300.779231,123.285322 301.318661,122.545126 C301.85614,121.814805 302.484234,121.15588 303.187822,120.584213 C303.836088,120.010407 304.926267,119.364977 305.574556,118.791167 Z" id="Path" fill="#A0616A" fill-rule="nonzero"></path>
                    <path d="M239.550537,124.497533 C239.157191,123.702166 238.665431,122.890694 237.871712,122.495218 C237.094051,122.157227 236.211893,122.153521 235.431426,122.484967 C234.661774,122.817127 233.941217,123.253282 233.28986,123.781263 L231.369748,125.198095 C230.934401,125.483952 230.549228,125.839846 230.229791,126.251399 C229.9268,126.750611 229.72505,127.304695 229.63607,127.881987 C229.301399,129.198532 229.199234,130.563506 229.334186,131.915271 C229.638898,134.082718 230.944347,135.974944 232.381235,137.624825 C233.2791,138.655787 234.387633,139.69619 235.75328,139.740165 C236.342776,139.759147 236.998376,139.526558 237.243551,138.989593 C237.328451,138.776702 237.373566,138.550013 237.376652,138.320807 C237.524173,135.903234 236.660213,133.541832 235.652726,131.339699 C235.3315,130.76308 235.141681,130.122469 235.096873,129.46378 C235.08965,129.35293 235.118446,129.242716 235.178961,129.1496 C235.265856,129.059067 235.382001,129.002302 235.506757,128.989392 C236.885688,128.716366 239.260834,129.788664 240.228179,128.25582 C240.855289,127.262113 239.996182,125.398657 239.550537,124.497533 Z" id="Path" fill="#A0616A" fill-rule="nonzero"></path>
                    <path d="M267.929712,89.100625 C267.911234,88.9026171 267.940304,88.7030561 268.014498,88.5185747 C268.235395,88.1275959 268.812202,88.2340046 269.247312,88.3438128 C270.997131,88.7854101 272.840884,88.3856779 274.642513,88.4888426 C276.444142,88.5920073 278.473549,89.4935847 278.835799,91.2631944 C280.143494,90.3351966 281.270758,89.175791 282.16204,87.8421131 C282.662048,87.0931052 283.097879,86.235172 283.029809,85.3369015 C282.93163,84.0412831 281.845667,83.0723214 280.840142,82.2506316 L277.842729,79.8012269 C277.449361,79.4393115 276.994964,79.1501287 276.500666,78.947123 C275.808499,78.7103505 275.053682,78.8231581 274.322215,78.8236276 C272.140302,78.8250298 269.81396,77.8310483 267.873416,78.8295569 C267.062805,79.2466567 266.452679,79.961422 265.864514,80.6583697 L263.189282,83.8283102 C262.987904,84.030335 262.840804,84.2800318 262.761648,84.554203 C262.685534,84.9411376 262.884045,85.3230026 262.953321,85.7112235 C263.079686,86.4193882 262.774978,87.1751786 263.009237,87.8552513 C263.398147,88.9842626 264.76759,89.1440807 265.604811,89.7913327 C265.916843,90.0325628 266.40588,90.8501091 266.777658,90.8401224 C267.448431,90.8221098 267.912269,89.6223049 267.929712,89.100625 Z" id="Path" fill="#3F3D56" fill-rule="nonzero"></path>
                    <path d="M249.734794,112.600784 C249.388923,112.824079 249.085334,113.106979 248.838115,113.436353 C248.524028,113.91171 248.460187,114.511819 248.190394,115.013687 C247.613052,116.087616 246.262677,116.469676 245.42027,117.350721 C245.286439,117.471862 245.19344,117.631573 245.154091,117.807841 C245.150029,118.046952 245.230138,118.279871 245.380386,118.465804 L249.442689,124.858515 C250.79524,124.977725 252.092814,124.129484 253.44594,124.242083 C253.951168,124.284127 254.468157,124.458806 254.952646,124.309358 C255.299505,124.155406 255.624594,123.95639 255.919525,123.717444 C256.726799,123.206495 257.80198,123.146961 258.479261,122.472844 C259.129246,121.825893 259.212178,120.813687 259.204428,119.896181 C259.215288,119.099406 259.134255,118.304039 258.962937,117.525863 C258.364865,115.072093 256.490082,113.189064 255.314774,111.015479 C254.742595,109.957278 254.431243,109.337804 253.220167,110.064392 C252.002808,110.794735 250.880469,111.762133 249.734794,112.600784 Z" id="Path" fill="#3F3D56" fill-rule="nonzero"></path>
                    <path d="M299.070805,109.367999 C299.834232,109.864238 300.52248,110.467689 301.114457,111.159861 C301.733315,111.958624 302.083821,112.936181 302.678295,113.75329 C303.254514,114.545308 304.038888,115.158714 304.692483,115.888032 C305.683699,116.994087 306.355091,118.343466 307.014395,119.674739 C305.404045,121.777061 303.648151,123.763552 301.759678,125.619544 C301.54948,125.867487 301.272521,126.049733 300.961783,126.14458 C300.532464,126.19021 300.108886,126.017351 299.833811,125.684263 C299.541247,125.377011 299.333888,124.998224 299.054195,124.679187 C298.394062,123.99752 297.514301,123.5716 296.570613,123.476806 C295.635307,123.386311 294.69413,123.373337 293.75669,123.438016 C293.55087,123.460967 293.342736,123.425953 293.155718,123.336918 C293.016665,123.240864 292.903919,123.111412 292.827812,122.960427 C291.727957,121.087004 292.081726,118.734871 292.469761,116.596895 L293.360159,111.691019 C293.489163,110.754069 293.73823,109.837662 294.10121,108.964431 C294.438415,108.24296 295.192597,107.019517 296.119877,107.235503 C297.054649,107.453218 298.28438,108.801772 299.070805,109.367999 Z" id="Path" fill="#3F3D56" fill-rule="nonzero"></path>
                    <ellipse id="Oval" fill="#FFFFFF" fill-rule="nonzero" cx="136.092009" cy="127.998059" rx="13.5446429" ry="13.5828604"></ellipse>
                    <path d="M136.092009,112.100384 C127.1519,112.100384 119.904509,119.355029 119.904509,128.304087 C119.904509,137.253146 127.1519,144.507791 136.092009,144.507791 C145.032119,144.507791 152.279509,137.253146 152.279509,128.304087 C152.253372,119.365888 145.02127,112.126547 136.092009,112.100384 Z M132.768904,136.943466 L124.47281,128.639064 L126.79976,126.309785 L132.77669,132.292692 L145.392038,119.664716 L147.718992,121.993998 L132.7689,136.943472 L132.768904,136.943466 Z" id="Shape" fill="#57B894" fill-rule="nonzero"></path>
                </g>
            </g>
        </g>
    </g>
</svg>